<svg xmlns="http://www.w3.org/2000/svg" width="64" height="64" viewBox="0 0 64 64">
  <defs>
    <linearGradient id="grad" x1="0" y1="0" x2="1" y2="1">
      <stop offset="0%" stop-color="#00b5d8"/>
      <stop offset="100%" stop-color="#2563eb"/>
    </linearGradient>
  </defs>
  <rect width="64" height="64" rx="14" fill="url(#grad)"/>
  <path
    d="M32 16c-6.732 0-12.168 5.52-12.168 12.327 0 6.204 4.32 11.343 10.065 12.15l-2.46 7.201c3.9-.252 7.323-2.238 9.54-5.167 2.856-3.703 3.996-8.583 3.996-14.184C40.973 21.52 36.535 16 32 16zm0 6.74c3.066 0 5.56 2.523 5.56 5.647S35.065 34.03 32 34.03c-3.068 0-5.56-2.523-5.56-5.647S28.934 22.74 32 22.74z"
    fill="#f8fafc"
    fill-rule="evenodd"
  />
</svg>
